<svg width="22" height="25" viewBox="0 0 22 25" fill="none" xmlns="http://www.w3.org/2000/svg">
<g clip-path="url(#clip0_1_502)">
<path d="M6.1541 0C9.5281 0 12.9031 0 16.2781 0C16.3621 0.082 16.4491 0.162 16.5321 0.246C18.1021 1.827 19.6701 3.411 21.2441 4.988C21.4161 5.16 21.4951 5.338 21.4941 5.582C21.4901 10.734 21.4911 15.887 21.4911 21.039C21.4911 21.538 21.3651 21.663 20.8611 21.663C19.3731 21.663 17.8851 21.663 16.3961 21.663C15.9001 21.663 15.4031 21.663 14.8811 21.663C14.8811 21.774 14.8811 21.859 14.8811 21.943C14.8801 22.767 14.8721 23.592 14.8831 24.415C14.8871 24.703 14.7921 24.899 14.5211 25C9.7871 25 5.0521 25 0.317104 25C0.0831035 24.866 0.00610352 24.662 0.00610352 24.395C0.0101035 17.575 0.0101035 10.756 0.0111035 3.936C0.0111035 3.47 0.145104 3.337 0.614104 3.337C1.7671 3.336 2.9211 3.337 4.0741 3.337C4.6391 3.337 5.2041 3.337 5.7941 3.337C5.7941 3.226 5.7941 3.142 5.7941 3.058C5.7951 2.233 5.8031 1.409 5.7921 0.585C5.7881 0.297 5.8831 0.101 6.1541 0ZM14.0551 9.163C13.9421 9.163 13.8351 9.163 13.7281 9.163C12.3861 9.163 11.0431 9.164 9.7011 9.163C9.2341 9.162 9.1021 9.027 9.1021 8.557C9.1011 7.186 9.1021 5.815 9.1021 4.444C9.1021 4.353 9.1021 4.263 9.1021 4.176C6.3241 4.176 3.5901 4.176 0.851104 4.176C0.851104 10.847 0.851104 17.504 0.851104 24.149C5.2661 24.149 9.6581 24.149 14.0551 24.149C14.0551 19.155 14.0551 14.183 14.0551 9.163ZM20.6541 20.825C20.6541 15.817 20.6541 10.832 20.6541 5.832C20.5691 5.832 20.5011 5.832 20.4331 5.832C19.0561 5.832 17.6791 5.832 16.3021 5.832C15.8591 5.831 15.7141 5.684 15.7131 5.239C15.7131 3.92 15.7121 2.601 15.7111 1.282C15.7111 1.138 15.7111 0.993 15.7111 0.847C12.6651 0.847 9.6491 0.847 6.6341 0.847C6.6341 1.685 6.6341 2.504 6.6341 3.337C7.5471 3.337 8.4421 3.345 9.3361 3.332C9.5811 3.329 9.7571 3.408 9.9271 3.58C11.4811 5.155 13.0371 6.728 14.6021 8.291C14.8041 8.492 14.8841 8.696 14.8831 8.976C14.8771 12.804 14.8791 16.631 14.8791 20.458C14.8791 20.577 14.8791 20.695 14.8791 20.825C16.8211 20.825 18.7281 20.825 20.6541 20.825ZM16.5501 1.469C16.5501 2.659 16.5501 3.823 16.5501 4.981C17.7221 4.981 18.8751 4.981 20.0361 4.981C18.8721 3.808 17.7221 2.65 16.5501 1.469ZM13.3471 8.328C12.2131 7.183 11.0611 6.019 9.9391 4.886C9.9391 5.993 9.9391 7.158 9.9391 8.328C11.1061 8.328 12.2551 8.328 13.3471 8.328Z" fill="#F5F5F5"/>
</g>
<defs>
<clipPath id="clip0_1_502">
<rect width="22" height="25" fill="white"/>
</clipPath>
</defs>
</svg>
