<svg width="64" height="64" viewBox="0 0 64 64" fill="none" xmlns="http://www.w3.org/2000/svg">
<path d="M54.072 32.5642V31.9076C54.072 26.7226 49.8536 22.5045 44.669 22.5045H33.515V18.4868C36.0457 17.8158 37.9164 15.5066 37.9164 12.7682C37.9164 9.50569 35.2626 6.85193 32.0003 6.85193C28.738 6.85193 26.0838 9.50569 26.0838 12.7682C26.0838 15.5066 27.9547 17.8158 30.4852 18.4868V22.5045H19.3312C14.1464 22.5045 9.92812 26.7227 9.92812 31.9076V32.5642C6.25612 33.2739 3.47412 36.5123 3.47412 40.388C3.47412 44.2687 6.26204 47.5091 9.93964 48.2145C10.185 53.1819 14.3036 57.1482 19.3312 57.1482H44.6691C49.6965 57.1482 53.8149 53.1819 54.0604 48.2145C57.7381 47.5091 60.5262 44.2687 60.5262 40.388C60.5261 36.5122 57.7442 33.2739 54.072 32.5642ZM9.92812 45.0883C7.94388 44.4473 6.50436 42.5831 6.50436 40.3879C6.50436 38.1932 7.94388 36.3291 9.92812 35.6879V45.0883ZM29.1139 12.7682C29.1139 11.1767 30.4085 9.88193 32.0001 9.88193C33.5916 9.88193 34.8864 11.1768 34.8864 12.7682C34.8864 14.3595 33.5916 15.6544 32.0001 15.6544C30.4085 15.6544 29.1139 14.3594 29.1139 12.7682ZM51.0422 47.7451C51.0421 51.2592 48.183 54.1179 44.669 54.1179H19.3312C15.817 54.1179 12.9581 51.2592 12.9581 47.7451V31.9076C12.9581 28.3936 15.817 25.5347 19.3312 25.5347H44.6691C48.1831 25.5347 51.0422 28.3936 51.0422 31.9076V47.7451ZM54.072 45.0883V35.688C56.0561 36.3292 57.4959 38.1933 57.4959 40.388C57.4959 42.583 56.0561 44.4474 54.072 45.0883Z" fill="#ADBFEB"/>
<path d="M43.0496 32.0489C40.5852 32.0489 38.5804 34.0539 38.5804 36.5181C38.5804 38.9826 40.5853 40.9874 43.0496 40.9874C45.514 40.9874 47.519 38.9824 47.519 36.5181C47.519 34.054 45.514 32.0489 43.0496 32.0489ZM43.0496 37.9573C42.256 37.9573 41.6104 37.3121 41.6104 36.5182C41.6104 35.7246 42.256 35.0788 43.0496 35.0788C43.8433 35.0788 44.489 35.7246 44.489 36.5182C44.489 37.3119 43.8433 37.9573 43.0496 37.9573Z" fill="#ADBFEB"/>
<path d="M20.9506 32.0489C18.486 32.0489 16.4813 34.0539 16.4813 36.5181C16.4813 38.9826 18.4861 40.9874 20.9506 40.9874C23.4148 40.9874 25.4199 38.9824 25.4199 36.5181C25.4199 34.054 23.4148 32.0489 20.9506 32.0489ZM20.9506 37.9573C20.157 37.9573 19.5113 37.3121 19.5113 36.5182C19.5113 35.7246 20.157 35.0788 20.9506 35.0788C21.7441 35.0788 22.3899 35.7246 22.3899 36.5182C22.3899 37.3119 21.7441 37.9573 20.9506 37.9573Z" fill="#ADBFEB"/>
<path d="M36.1284 45.6977H27.8717C27.0349 45.6977 26.3566 46.376 26.3566 47.2124C26.3566 48.0493 27.0349 48.7275 27.8717 48.7275H36.1286C36.9652 48.7275 37.6436 48.0491 37.6436 47.2124C37.6435 46.3759 36.9652 45.6977 36.1284 45.6977Z" fill="#ADBFEB"/>
</svg>
