<svg width="25" height="25" viewBox="0 0 25 25" fill="none" xmlns="http://www.w3.org/2000/svg">
<path opacity="0.5" fill-rule="evenodd" clip-rule="evenodd" d="M12.5 1.74419C6.55973 1.74419 1.74419 6.55973 1.74419 12.5C1.74419 18.4403 6.55973 23.2558 12.5 23.2558C18.4403 23.2558 23.2558 18.4403 23.2558 12.5C23.2558 6.55973 18.4403 1.74419 12.5 1.74419ZM0 12.5C0 5.59644 5.59644 0 12.5 0C19.4036 0 25 5.59644 25 12.5C25 19.4036 19.4036 25 12.5 25C5.59644 25 0 19.4036 0 12.5Z" fill="#F5F5F5"/>
<path fill-rule="evenodd" clip-rule="evenodd" d="M12.5 10.5C13.0523 10.5 13.5 10.8806 13.5 11.35V18.15C13.5 18.6194 13.0523 19 12.5 19C11.9477 19 11.5 18.6194 11.5 18.15V11.35C11.5 10.8806 11.9477 10.5 12.5 10.5Z" fill="#F5F5F5"/>
<path d="M12.25 6.5C12.9404 6.5 13.5 7.05964 13.5 7.75C13.5 8.44036 12.9404 9 12.25 9C11.5596 9 11 8.44036 11 7.75C11 7.05964 11.5596 6.5 12.25 6.5Z" fill="#F5F5F5"/>
</svg>
