<svg width="289" height="64" viewBox="0 0 289 64" fill="none" xmlns="http://www.w3.org/2000/svg">
<path d="M93.75 25C94.3333 25 94.8333 25.1979 95.25 25.5938C95.6667 25.9688 95.8854 26.4479 95.9062 27.0312V29.75H106.531C107.115 29.75 107.615 29.9479 108.031 30.3438C108.427 30.7604 108.625 31.2604 108.625 31.8438C108.625 32.4271 108.417 32.9271 108 33.3438C107.604 33.7396 107.115 33.9375 106.531 33.9375H95.9062V34.5625C95.8854 35.4167 95.9375 36.2083 96.0625 36.9375C96.2083 37.6458 96.5417 38.2812 97.0625 38.8438C97.5833 39.4062 98.2396 39.7083 99.0312 39.75H106.656C107.24 39.7708 107.719 39.9896 108.094 40.4062C108.49 40.8229 108.688 41.3229 108.688 41.9062C108.667 42.4688 108.458 42.9479 108.062 43.3438C107.688 43.7188 107.219 43.9167 106.656 43.9375H97.9688C96.5104 43.8542 95.3021 43.3646 94.3438 42.4688C93.4062 41.5521 92.7292 40.4375 92.3125 39.125C91.9167 37.8125 91.7083 36.4167 91.6875 34.9375V33.9375H88.0938C87.5104 33.9375 87.0208 33.7292 86.625 33.3125C86.2083 32.9167 86 32.4271 86 31.8438C86 31.2604 86.1979 30.7708 86.5938 30.375C87.0104 29.9583 87.5104 29.75 88.0938 29.75H91.6875V27.0312C91.7083 26.4688 91.9167 26 92.3125 25.625C92.7083 25.2292 93.1875 25.0208 93.75 25ZM112.344 33.6875C112.74 32.6875 113.406 31.7917 114.344 31C115.302 30.1875 116.51 29.7708 117.969 29.75H129.719C130.302 29.75 130.792 29.9583 131.188 30.375C131.604 30.7708 131.812 31.2604 131.812 31.8438C131.812 32.4271 131.604 32.9271 131.188 33.3438C130.792 33.7396 130.302 33.9375 129.719 33.9375H117.844C117.448 33.9375 117.104 34.1042 116.812 34.4375C116.521 34.75 116.292 35.125 116.125 35.5625C115.979 36 115.906 36.4167 115.906 36.8125V42.2812C115.781 43.5312 115.094 44.2083 113.844 44.3125C113.26 44.3125 112.75 44.125 112.312 43.75C111.896 43.3542 111.688 42.8646 111.688 42.2812V36.8438H111.719C111.719 35.7604 111.927 34.7083 112.344 33.6875ZM152.375 42.2812V34.75C152.375 34.2292 152.104 33.9583 151.562 33.9375H140.625C140.229 33.9583 139.885 34.1354 139.594 34.4688C139.302 34.7812 139.083 35.1562 138.938 35.5938C138.812 36.0104 138.75 36.4375 138.75 36.875C138.75 37.2917 138.812 37.7188 138.938 38.1562C139.083 38.5729 139.302 38.9479 139.594 39.2812C139.885 39.5938 140.229 39.75 140.625 39.75H148.625C149.208 39.75 149.698 39.9583 150.094 40.375C150.51 40.7708 150.719 41.2604 150.719 41.8438C150.719 42.4271 150.51 42.9167 150.094 43.3125C149.698 43.7292 149.208 43.9375 148.625 43.9375H140.75C139.292 43.9167 138.083 43.5104 137.125 42.7188C136.188 41.9062 135.51 41 135.094 40C134.698 38.9792 134.5 37.9271 134.5 36.8438C134.5 35.8021 134.708 34.7812 135.125 33.7812C135.542 32.7604 136.219 31.8542 137.156 31.0625C138.094 30.25 139.479 29.8125 141.312 29.75H154.438C155.021 29.75 155.521 29.9479 155.938 30.3438C156.354 30.7188 156.573 31.1979 156.594 31.7812V42.2812C156.594 42.8646 156.375 43.3542 155.938 43.75C155.521 44.125 155.021 44.3125 154.438 44.3125C153.188 44.2083 152.5 43.5312 152.375 42.2812ZM170.594 29.2812C171.677 29.2812 172.74 29.4062 173.781 29.6562C174.844 29.9062 175.854 30.2812 176.812 30.7812C177.771 31.2604 178.615 31.9062 179.344 32.7188C180.094 33.5312 180.5 34.5 180.562 35.625V36.9375V42.2812C180.438 43.5312 179.75 44.2083 178.5 44.3125C177.917 44.3125 177.406 44.125 176.969 43.75C176.552 43.3542 176.344 42.8646 176.344 42.2812V40.9062V36.5938C176.302 35.9479 176.052 35.4167 175.594 35C175.156 34.5625 174.656 34.2188 174.094 33.9688C173.552 33.7188 172.979 33.5312 172.375 33.4062C171.792 33.2812 171.198 33.2188 170.594 33.2188C169.99 33.2188 169.385 33.2812 168.781 33.4062C168.198 33.5312 167.625 33.7188 167.062 33.9688C166.521 34.2188 166.021 34.5625 165.562 35C165.125 35.4167 164.885 35.9479 164.844 36.5938V40.9062V42.2812C164.74 43.5312 164.062 44.2083 162.812 44.3125C162.229 44.3125 161.719 44.125 161.281 43.75C160.865 43.3542 160.656 42.8646 160.656 42.2812V36.9375V35.625C160.719 34.5 161.115 33.5312 161.844 32.7188C162.573 31.9062 163.417 31.2604 164.375 30.7812C165.333 30.2812 166.333 29.9062 167.375 29.6562C168.438 29.4062 169.51 29.2812 170.594 29.2812ZM204.375 31.5625C204.375 32.0833 204.167 32.5208 203.75 32.875C203.354 33.2083 202.865 33.375 202.281 33.375H189.062C188.792 33.375 188.573 33.4271 188.406 33.5312C188.24 33.6354 188.115 33.75 188.031 33.875C187.948 33.9792 187.906 34.0729 187.906 34.1562C187.906 34.2604 187.948 34.375 188.031 34.5C188.115 34.6042 188.24 34.7083 188.406 34.8125C188.573 34.8958 188.792 34.9479 189.062 34.9688H199.281C200.594 34.9896 201.677 35.25 202.531 35.75C203.385 36.2292 203.99 36.8021 204.344 37.4688C204.719 38.1146 204.906 38.7708 204.906 39.4375C204.906 40.0833 204.719 40.7396 204.344 41.4062C203.969 42.0521 203.354 42.625 202.5 43.125C201.667 43.6042 200.594 43.8438 199.281 43.8438C199.052 43.8646 198.885 43.875 198.781 43.875H186.656C186.073 43.875 185.573 43.7083 185.156 43.375C184.76 43.0208 184.562 42.5938 184.562 42.0938C184.562 41.5729 184.771 41.1354 185.188 40.7812C185.583 40.4479 186.073 40.2812 186.656 40.2812H199.531C199.844 40.3021 200.094 40.2604 200.281 40.1562C200.49 40.0521 200.646 39.9375 200.75 39.8125C200.854 39.6875 200.906 39.5625 200.906 39.4375C200.906 39.375 200.854 39.2708 200.75 39.125C200.646 38.9583 200.49 38.8333 200.281 38.75C200.094 38.6458 199.844 38.5833 199.531 38.5625H189.281C188.073 38.5417 187.073 38.2917 186.281 37.8125C185.49 37.3125 184.927 36.7396 184.594 36.0938C184.26 35.4479 184.094 34.8021 184.094 34.1562C184.094 33.5104 184.26 32.875 184.594 32.25C184.948 31.6042 185.51 31.0521 186.281 30.5938C187.073 30.1146 188.073 29.8542 189.281 29.8125C189.49 29.7917 189.646 29.7812 189.75 29.7812H202.281C202.865 29.7812 203.354 29.9583 203.75 30.3125C204.167 30.6458 204.375 31.0625 204.375 31.5625ZM210.531 25C211.094 25.0208 211.573 25.2292 211.969 25.625C212.365 26 212.573 26.4688 212.594 27.0312V42.3438C212.469 43.5938 211.781 44.2708 210.531 44.375C209.948 44.375 209.438 44.1875 209 43.8125C208.583 43.4167 208.375 42.9271 208.375 42.3438V27.0312C208.396 26.4479 208.615 25.9688 209.031 25.5938C209.448 25.1979 209.948 25 210.531 25ZM234.031 42.2812V34.75C234.031 34.2292 233.76 33.9583 233.219 33.9375H222.281C221.885 33.9583 221.542 34.1354 221.25 34.4688C220.958 34.7812 220.74 35.1562 220.594 35.5938C220.469 36.0104 220.406 36.4375 220.406 36.875C220.406 37.2917 220.469 37.7188 220.594 38.1562C220.74 38.5729 220.958 38.9479 221.25 39.2812C221.542 39.5938 221.885 39.75 222.281 39.75H230.281C230.865 39.75 231.354 39.9583 231.75 40.375C232.167 40.7708 232.375 41.2604 232.375 41.8438C232.375 42.4271 232.167 42.9167 231.75 43.3125C231.354 43.7292 230.865 43.9375 230.281 43.9375H222.406C220.948 43.9167 219.74 43.5104 218.781 42.7188C217.844 41.9062 217.167 41 216.75 40C216.354 38.9792 216.156 37.9271 216.156 36.8438C216.156 35.8021 216.365 34.7812 216.781 33.7812C217.198 32.7604 217.875 31.8542 218.812 31.0625C219.75 30.25 221.135 29.8125 222.969 29.75H236.094C236.677 29.75 237.177 29.9479 237.594 30.3438C238.01 30.7188 238.229 31.1979 238.25 31.7812V42.2812C238.25 42.8646 238.031 43.3542 237.594 43.75C237.177 44.125 236.677 44.3125 236.094 44.3125C234.844 44.2083 234.156 43.5312 234.031 42.2812ZM249.062 25C249.646 25 250.146 25.1979 250.562 25.5938C250.979 25.9688 251.198 26.4479 251.219 27.0312V29.75H261.844C262.427 29.75 262.927 29.9479 263.344 30.3438C263.74 30.7604 263.938 31.2604 263.938 31.8438C263.938 32.4271 263.729 32.9271 263.312 33.3438C262.917 33.7396 262.427 33.9375 261.844 33.9375H251.219V34.5625C251.198 35.4167 251.25 36.2083 251.375 36.9375C251.521 37.6458 251.854 38.2812 252.375 38.8438C252.896 39.4062 253.552 39.7083 254.344 39.75H261.969C262.552 39.7708 263.031 39.9896 263.406 40.4062C263.802 40.8229 264 41.3229 264 41.9062C263.979 42.4688 263.771 42.9479 263.375 43.3438C263 43.7188 262.531 43.9167 261.969 43.9375H253.281C251.823 43.8542 250.615 43.3646 249.656 42.4688C248.719 41.5521 248.042 40.4375 247.625 39.125C247.229 37.8125 247.021 36.4167 247 34.9375V33.9375H243.406C242.823 33.9375 242.333 33.7292 241.938 33.3125C241.521 32.9167 241.312 32.4271 241.312 31.8438C241.312 31.2604 241.51 30.7708 241.906 30.375C242.323 29.9583 242.823 29.75 243.406 29.75H247V27.0312C247.021 26.4688 247.229 26 247.625 25.625C248.021 25.2292 248.5 25.0208 249.062 25ZM273.406 43.9375C271.573 43.875 270.188 43.4479 269.25 42.6562C268.312 41.8438 267.635 40.9375 267.219 39.9375C266.802 38.9167 266.594 37.8854 266.594 36.8438C266.594 35.7604 266.792 34.7188 267.188 33.7188C267.604 32.6979 268.281 31.7917 269.219 31C270.177 30.1875 271.385 29.7708 272.844 29.75H284.719C285.302 29.75 285.792 29.9479 286.188 30.3438C286.604 30.7188 286.812 31.1771 286.812 31.7188C286.812 32.2812 286.604 32.7604 286.188 33.1562C285.792 33.5312 285.302 33.7188 284.719 33.7188H273.031C272.573 33.7188 272.167 33.875 271.812 34.1875C271.479 34.5 271.229 34.9062 271.062 35.4062C270.917 35.9062 270.844 36.3958 270.844 36.875C270.844 37.3958 270.917 37.9062 271.062 38.4062C271.229 38.9062 271.479 39.3125 271.812 39.625C272.167 39.9167 272.573 40.0729 273.031 40.0938H284.719C285.302 40.0938 285.792 40.2812 286.188 40.6562C286.604 41.0312 286.812 41.4792 286.812 42C286.812 42.5417 286.604 43 286.188 43.375C285.792 43.75 285.302 43.9375 284.719 43.9375H273.406ZM286.438 36.7812C286.438 37.1771 286.26 37.5208 285.906 37.8125C285.594 38.0833 285.198 38.2188 284.719 38.2188H274.5C274.021 38.2188 273.615 38.0833 273.281 37.8125C272.948 37.5208 272.781 37.1771 272.781 36.7812C272.781 36.4062 272.948 36.0729 273.281 35.7812C273.615 35.5104 274.021 35.375 274.5 35.375H284.719C285.198 35.375 285.604 35.5208 285.938 35.8125C286.271 36.0833 286.438 36.4062 286.438 36.7812Z" fill="#C4D0EE"/>
<path d="M54.072 32.5642V31.9076C54.072 26.7226 49.8536 22.5045 44.669 22.5045H33.515V18.4868C36.0457 17.8158 37.9164 15.5066 37.9164 12.7682C37.9164 9.50569 35.2626 6.85193 32.0003 6.85193C28.738 6.85193 26.0838 9.50569 26.0838 12.7682C26.0838 15.5066 27.9547 17.8158 30.4852 18.4868V22.5045H19.3312C14.1464 22.5045 9.92812 26.7227 9.92812 31.9076V32.5642C6.25612 33.2739 3.47412 36.5123 3.47412 40.388C3.47412 44.2687 6.26204 47.5091 9.93964 48.2145C10.185 53.1819 14.3036 57.1482 19.3312 57.1482H44.6691C49.6965 57.1482 53.8149 53.1819 54.0604 48.2145C57.7381 47.5091 60.5262 44.2687 60.5262 40.388C60.5261 36.5122 57.7442 33.2739 54.072 32.5642ZM9.92812 45.0883C7.94388 44.4473 6.50436 42.5831 6.50436 40.3879C6.50436 38.1932 7.94388 36.3291 9.92812 35.6879V45.0883ZM29.1139 12.7682C29.1139 11.1767 30.4085 9.88193 32.0001 9.88193C33.5916 9.88193 34.8864 11.1768 34.8864 12.7682C34.8864 14.3595 33.5916 15.6544 32.0001 15.6544C30.4085 15.6544 29.1139 14.3594 29.1139 12.7682ZM51.0422 47.7451C51.0421 51.2592 48.183 54.1179 44.669 54.1179H19.3312C15.817 54.1179 12.9581 51.2592 12.9581 47.7451V31.9076C12.9581 28.3936 15.817 25.5347 19.3312 25.5347H44.6691C48.1831 25.5347 51.0422 28.3936 51.0422 31.9076V47.7451ZM54.072 45.0883V35.688C56.0561 36.3292 57.4959 38.1933 57.4959 40.388C57.4959 42.583 56.0561 44.4474 54.072 45.0883Z" fill="#C4D0EE"/>
<path d="M43.0496 32.0489C40.5852 32.0489 38.5804 34.0539 38.5804 36.5181C38.5804 38.9826 40.5853 40.9874 43.0496 40.9874C45.514 40.9874 47.519 38.9824 47.519 36.5181C47.519 34.054 45.514 32.0489 43.0496 32.0489ZM43.0496 37.9573C42.256 37.9573 41.6104 37.3121 41.6104 36.5182C41.6104 35.7246 42.256 35.0788 43.0496 35.0788C43.8433 35.0788 44.489 35.7246 44.489 36.5182C44.489 37.3119 43.8433 37.9573 43.0496 37.9573Z" fill="#C4D0EE"/>
<path d="M20.9506 32.0489C18.486 32.0489 16.4813 34.0539 16.4813 36.5181C16.4813 38.9826 18.4861 40.9874 20.9506 40.9874C23.4148 40.9874 25.4199 38.9824 25.4199 36.5181C25.4199 34.054 23.4148 32.0489 20.9506 32.0489ZM20.9506 37.9573C20.157 37.9573 19.5113 37.3121 19.5113 36.5182C19.5113 35.7246 20.157 35.0788 20.9506 35.0788C21.7441 35.0788 22.3899 35.7246 22.3899 36.5182C22.3899 37.3119 21.7441 37.9573 20.9506 37.9573Z" fill="#C4D0EE"/>
<path d="M36.1284 45.6977H27.8717C27.0349 45.6977 26.3566 46.376 26.3566 47.2124C26.3566 48.0493 27.0349 48.7275 27.8717 48.7275H36.1286C36.9652 48.7275 37.6436 48.0491 37.6436 47.2124C37.6435 46.3759 36.9652 45.6977 36.1284 45.6977Z" fill="#C4D0EE"/>
</svg>
