<svg width="40" height="25" viewBox="0 0 40 25" fill="none" xmlns="http://www.w3.org/2000/svg">
<path fill-rule="evenodd" clip-rule="evenodd" d="M28.672 0.056254C28.28 0.448254 29.635 2.48525 31.683 4.58225L35.406 8.39525H17.703C2.634 8.39525 0 8.61825 0 9.89525C0 11.1773 2.827 11.3953 19.441 11.3953C30.134 11.3953 39.113 11.0223 39.395 10.5653C40.085 9.44925 29.578 -0.848746 28.672 0.056254ZM0.641 14.0873C-0.298 15.0273 10.1 25.4513 11.261 24.7343C11.767 24.4213 10.474 22.4173 8.388 20.2803L4.594 16.3953H22.297C37.366 16.3953 40 16.1723 40 14.8953C40 13.6133 37.185 13.3953 20.667 13.3953C10.033 13.3953 1.022 13.7073 0.641 14.0873Z" fill="#F5F5F5"/>
</svg>
